HIERARCHY
ROOT Hips
{
    OFFSET 0.000000 0.000000 0.000000
    CHANNELS 6 Xposition Yposition Zposition Zrotation Xrotation Yrotation
    JOINT Spine
    {
        OFFSET -0.000000 14.517291 0.000000
        CHANNELS 3 Zrotation Xrotation Yrotation
        JOINT Spine1
        {
            OFFSET -0.000000 37.558300 0.000000
            CHANNELS 3 Zrotation Xrotation Yrotation
            JOINT Neck
            {
                OFFSET -0.000000 37.404057 3.400369
                CHANNELS 3 Zrotation Xrotation Yrotation
                JOINT Head
                {
                    OFFSET -0.000000 24.785618 -3.540803
                    CHANNELS 3 Zrotation Xrotation Yrotation
                    End Site
                    {
                        OFFSET -0.000000 35.408028 0.000000
                    }
                }
            }
            JOINT LeftShoulder
            {
                OFFSET 6.992933 33.973492 -0.192664
                CHANNELS 3 Zrotation Xrotation Yrotation
                JOINT LeftArm
                {
                    OFFSET 21.527611 0.000000 0.000000
                    CHANNELS 3 Zrotation Xrotation Yrotation
                    JOINT LeftForeArm
                    {
                        OFFSET 56.353916 0.000000 0.000000
                        CHANNELS 3 Zrotation Xrotation Yrotation
                        JOINT LeftHand
                        {
                            OFFSET 47.774071 0.000000 0.000000
                            CHANNELS 3 Zrotation Xrotation Yrotation
                            End Site
                            {
                                OFFSET 26.556021 0.000000 0.000000
                            }
                        }
                    }
                }
            }
            JOINT RightShoulder
            {
                OFFSET -7.065357 33.973492 -0.192664
                CHANNELS 3 Zrotation Xrotation Yrotation
                JOINT RightArm
                {
                    OFFSET -21.527611 0.000000 0.000000
                    CHANNELS 3 Zrotation Xrotation Yrotation
                    JOINT RightForeArm
                    {
                        OFFSET -56.353916 0.000000 0.000000
                        CHANNELS 3 Zrotation Xrotation Yrotation
                        JOINT RightHand
                        {
                            OFFSET -47.774071 0.000000 0.000000
                            CHANNELS 3 Zrotation Xrotation Yrotation
                            End Site
                            {
                                OFFSET -26.556021 0.000000 0.000000
                            }
                        }
                    }
                }
            }
        }
    }
    JOINT LeftUpLeg
    {
        OFFSET 17.704014 0.000000 0.000000
        CHANNELS 3 Zrotation Xrotation Yrotation
        JOINT LeftLeg
        {
            OFFSET -0.000000 -81.181816 0.000000
            CHANNELS 3 Zrotation Xrotation Yrotation
            JOINT LeftFoot
            {
                OFFSET -0.000000 -62.821102 0.000000
                CHANNELS 3 Zrotation Xrotation Yrotation
                JOINT LeftToeBase
                {
                    OFFSET -0.000000 -11.507608 26.556021
                    CHANNELS 3 Zrotation Xrotation Yrotation
                    End Site
                    {
                        OFFSET -0.000000 0.000000 7.081605
                    }
                }
            }
        }
    }
    JOINT RightUpLeg
    {
        OFFSET -17.704014 0.000000 0.000000
        CHANNELS 3 Zrotation Xrotation Yrotation
        JOINT RightLeg
        {
            OFFSET -0.000000 -81.181816 0.000000
            CHANNELS 3 Zrotation Xrotation Yrotation
            JOINT RightFoot
            {
                OFFSET -0.000000 -62.821102 0.000000
                CHANNELS 3 Zrotation Xrotation Yrotation
                JOINT RightToeBase
                {
                    OFFSET -0.000000 -11.507608 26.556021
                    CHANNELS 3 Zrotation Xrotation Yrotation
                    End Site
                    {
                        OFFSET -0.000000 0.000000 7.081605
                    }
                }
            }
        }
    }
}
MOTION
Frames:    8
Frame Time:    0.008333
35.186325    159.921417    -97.182930    -2.420814    -0.172157    23.667305    -0.166640    -5.908583    -1.721816    -7.843605    2.423315    -0.402674    16.548914    -2.550480    3.124829    2.564556    1.806679    0.724850    9.097407    6.179519    -13.442960    -37.776512    12.389423    -52.351746    -8.687117    -22.828136    -115.982437    -3.309672    -34.768986    -11.311029    -11.980528    -0.146333    -6.404252    15.615085    -2.796766    30.371761    -7.857378    14.038316    58.138554    -0.149369    18.230337    7.712435    9.563078    4.420183    1.299037    -8.567750    18.880445    -17.302223    4.585061    -22.583387    44.813061    0.000000    0.000000    0.000000    -10.830258    -24.813019    -5.440890    10.229667    24.428446    -12.564879    0.767490    8.641415    -12.529474    0.000000    0.000000    0.000000    
35.205627    159.922058    -97.178062    -2.438040    -0.171779    23.666513    -0.176831    -5.915901    -1.713089    -7.849870    2.426719    -0.399251    16.542604    -2.536664    3.129028    2.571519    1.749834    0.734431    9.102951    6.177278    -13.432873    -37.758499    12.387505    -52.337189    -8.711635    -22.783070    -115.994995    -3.298695    -34.766556    -11.270028    -11.949658    -0.146581    -6.399966    15.554049    -2.569077    30.391623    -7.288610    14.559393    56.321133    -0.149181    18.295847    8.031802    9.573384    4.415555    1.301831    -8.569357    18.884298    -17.301220    4.599669    -22.585766    44.814144    0.000000    0.000000    0.000000    -10.818709    -24.810383    -5.446239    10.225526    24.418592    -12.565970    0.776259    8.645720    -12.527322    0.000000    0.000000    0.000000    
35.229080    159.924759    -97.173248    -2.446660    -0.171805    23.671766    -0.192583    -5.916864    -1.715692    -7.849377    2.427112    -0.399814    16.514622    -2.552992    3.129257    2.593992    1.741429    0.740323    9.099637    6.178249    -13.401706    -37.751034    12.399529    -52.346272    -8.724617    -22.764994    -115.999092    -3.359889    -34.764946    -11.222811    -11.939510    -0.133443    -6.403118    15.506493    -2.327592    30.420834    -6.704652    15.006140    54.570332    -0.252235    18.305004    8.077073    9.575061    4.416387    1.303245    -8.569536    18.884478    -17.310163    4.595075    -22.592360    44.820450    0.000000    0.000000    0.000000    -10.818670    -24.798864    -5.443294    10.230876    24.403843    -12.547338    0.772192    8.642909    -12.556728    0.000000    0.000000    0.000000    
35.253162    159.926910    -97.167847    -2.454676    -0.172493    23.674364    -0.209729    -5.912638    -1.709442    -7.853125    2.422802    -0.397640    16.525488    -2.560002    3.140954    2.579632    1.711843    0.748163    9.101639    6.164038    -13.389801    -37.755035    12.415146    -52.335423    -8.707309    -22.742966    -115.984787    -3.416238    -34.714039    -11.239188    -11.914333    -0.136523    -6.409153    15.466016    -2.080660    30.436195    -6.188478    15.476142    52.805717    -0.094535    18.410246    8.256821    9.574795    4.414028    1.296642    -8.568302    18.895618    -17.294407    4.595278    -22.598991    44.809608    0.000000    0.000000    0.000000    -10.817579    -24.789021    -5.451378    10.225700    24.392376    -12.550709    0.772949    8.650157    -12.553428    0.000000    0.000000    0.000000    
35.276890    159.929840    -97.163773    -2.461788    -0.172070    23.679440    -0.228879    -5.912994    -1.709020    -7.847464    2.421619    -0.397304    16.494310    -2.567498    3.150084    2.610433    1.696249    0.766355    9.097986    6.162399    -13.381365    -37.767887    12.386837    -52.314690    -8.728092    -22.671165    -115.986099    -3.378012    -34.682144    -11.217092    -11.893348    -0.132971    -6.403935    15.419785    -1.832909    30.453627    -5.671013    15.896980    51.049911    0.143849    18.494781    8.336566    9.577002    4.413170    1.292984    -8.572583    18.898777    -17.300983    4.599992    -22.602507    44.811810    0.000000    0.000000    0.000000    -10.816197    -24.783598    -5.459601    10.210291    24.389168    -12.522074    0.803014    8.643362    -12.569623    0.000000    0.000000    0.000000    
35.298164    159.932037    -97.156837    -2.471873    -0.175485    23.690830    -0.241107    -5.907180    -1.711816    -7.842010    2.418756    -0.398360    16.495041    -2.545140    3.150349    2.568825    1.637560    0.765741    9.090440    6.146568    -13.367017    -37.761784    12.395668    -52.295002    -8.733132    -22.652550    -115.991829    -3.376101    -34.673542    -11.213173    -11.885937    -0.127110    -6.399097    15.392327    -1.612073    30.442751    -4.988548    16.136963    49.412125    0.740752    18.381250    8.479228    9.583861    4.405071    1.292986    -8.570694    18.920219    -17.308437    4.600675    -22.609306    44.808689    0.000000    0.000000    0.000000    -10.812633    -24.770578    -5.461552    10.208303    24.378050    -12.509221    0.812556    8.643924    -12.595585    0.000000    0.000000    0.000000    
35.321865    159.931000    -97.146919    -2.478100    -0.182738    23.706430    -0.251876    -5.897339    -1.711440    -7.838022    2.415271    -0.398365    16.481380    -2.548842    3.156934    2.547632    1.616599    0.772129    9.083141    6.124095    -13.373028    -38.641270    11.321069    -52.027340    -9.488747    -20.659639    -115.981033    -3.004663    -33.951454    -11.205537    -11.886283    -0.121179    -6.406546    15.309951    -1.489333    30.356075    -3.877740    16.170111    48.037033    1.211487    17.906168    8.364597    9.588413    4.403070    1.269457    -8.576987    18.938272    -17.304640    4.612851    -22.615271    44.818855    0.000000    0.000000    0.000000    -10.815484    -24.757444    -5.463825    10.207956    24.379505    -12.522437    0.805233    8.639178    -12.584064    0.000000    0.000000    0.000000    
35.343452    159.930176    -97.139153    -2.489422    -0.194780    23.719507    -0.245518    -5.917955    -1.712301    -7.851956    2.482561    -0.393802    16.465729    -2.564628    3.174957    2.543036    1.556206    0.792056    9.099190    6.082191    -13.342040    -38.606869    11.347362    -52.037350    -9.478973    -20.716286    -115.983955    -3.011416    -33.989048    -11.188660    -11.894688    -0.139342    -6.410122    15.294322    -1.299747    30.376709    -3.457143    16.868765    46.152657    0.971392    18.340343    8.468314    9.603487    4.402346    1.271018    -8.582658    18.958511    -17.310024    4.617406    -22.629332    44.810455    0.000000    0.000000    0.000000    -10.808184    -24.746096    -5.476854    10.197660    24.390896    -12.497856    0.803588    8.636448    -12.596182    0.000000    0.000000    0.000000    
